<svg width="57" height="51" viewBox="0 0 57 51" fill="none" xmlns="http://www.w3.org/2000/svg">
<path d="M7.125 6.375H11.875L12.825 10.625M16.625 27.625H40.375L49.875 10.625H12.825M16.625 27.625L12.825 10.625M16.625 27.625L11.1794 32.4974C9.68321 33.8361 10.7429 36.125 12.8588 36.125H40.375M40.375 36.125C37.7516 36.125 35.625 38.0278 35.625 40.375C35.625 42.7222 37.7516 44.625 40.375 44.625C42.9984 44.625 45.125 42.7222 45.125 40.375C45.125 38.0278 42.9984 36.125 40.375 36.125ZM21.375 40.375C21.375 42.7222 19.2484 44.625 16.625 44.625C14.0016 44.625 11.875 42.7222 11.875 40.375C11.875 38.0278 14.0016 36.125 16.625 36.125C19.2484 36.125 21.375 38.0278 21.375 40.375Z" stroke="#12130F" stroke-width="2" stroke-linecap="round" stroke-linejoin="round"/>
</svg>
