<svg width="82" height="69" viewBox="0 0 82 69" fill="none" xmlns="http://www.w3.org/2000/svg">
<path d="M10.25 34.5L17.0833 28.75M17.0833 28.75L41 8.625L64.9167 28.75M17.0833 28.75V57.5C17.0833 59.0878 18.613 60.375 20.5 60.375H30.75M64.9167 28.75L71.75 34.5M64.9167 28.75V57.5C64.9167 59.0878 63.387 60.375 61.5 60.375H51.25M30.75 60.375C32.637 60.375 34.1667 59.0878 34.1667 57.5V46C34.1667 44.4122 35.6964 43.125 37.5833 43.125H44.4167C46.3036 43.125 47.8333 44.4122 47.8333 46V57.5C47.8333 59.0878 49.363 60.375 51.25 60.375M30.75 60.375H51.25" stroke="#12130F" stroke-width="2" stroke-linecap="round" stroke-linejoin="round"/>
</svg>
